<?xml version="1.0" encoding="utf-8"?>
<!-- Svg Vector Icons : http://www.onlinewebfonts.com/icon -->
<!DOCTYPE svg PUBLIC "-//W3C//DTD SVG 1.1//EN" "http://www.w3.org/Graphics/SVG/1.1/DTD/svg11.dtd">
<svg version="1.1" xmlns="http://www.w3.org/2000/svg" xmlns:xlink="http://www.w3.org/1999/xlink" x="0px" y="0px" viewBox="0 0 1000 1000" enable-background="new 0 0 1000 1000" xml:space="preserve">
<metadata> Svg Vector Icons : http://www.onlinewebfonts.com/icon </metadata>
<g><path d="M500,990l-27.4-26c-37.5-35.6-366.3-353.8-366.3-560.3C106.3,186.6,282.9,10,500,10c217.1,0,393.7,176.6,393.7,393.7c0,206.5-328.8,524.7-366.3,560.3L500,990z M500,89.6c-173.2,0-314.2,140.9-314.2,314.1c0,133.7,206.3,367.8,314.2,475.8c107.9-108,314.1-342.2,314.1-475.8C814.1,230.5,673.2,89.6,500,89.6z"/><path d="M501.1,615.1C384.2,615.1,289,520,289,403s95.2-212.1,212.1-212.1c117,0,212.2,95.2,212.2,212.1S618.1,615.1,501.1,615.1z M501.1,270.4c-73.1,0-132.6,59.5-132.6,132.6c0,73.1,59.5,132.6,132.6,132.6c73.1,0,132.6-59.5,132.6-132.6C633.7,329.9,574.3,270.4,501.1,270.4z"/></g>
</svg>